/* XPM */
static char *bc0d866181c04bd9b892456d8388c2da[] = {
/* columns rows colors chars-per-pixel */
"16 16 139 2 ",
"   c #004900",
".  c #004C00",
"X  c #004D00",
"o  c #005A04",
"O  c #005E0B",
"+  c #005A10",
"@  c #005A1A",
"#  c #005F1D",
"$  c #00600E",
"%  c #00600F",
"&  c #006413",
"*  c #006513",
"=  c #006613",
"-  c #006615",
";  c #006817",
":  c #006919",
">  c #006A1C",
",  c #006C20",
"<  c #00642A",
"1  c #007321",
"2  c #007423",
"3  c #007324",
"4  c #007526",
"5  c #007228",
"6  c #007329",
"7  c #007728",
"8  c #00782A",
"9  c #00792D",
"0  c #007A2F",
"q  c #006B39",
"w  c #006E39",
"e  c #006E3C",
"r  c #007A31",
"t  c #007932",
"y  c #007B32",
"u  c #007C32",
"i  c #007D36",
"p  c #00733B",
"a  c #00713C",
"s  c #00723E",
"d  c #00733E",
"f  c #00743F",
"g  c #007F39",
"h  c #007F3E",
"j  c #007E3F",
"k  c #007541",
"l  c #007640",
"z  c #007741",
"x  c #007841",
"c  c #017A42",
"v  c #007E41",
"b  c #008040",
"n  c #008140",
"m  c #008240",
"M  c #008241",
"N  c #018341",
"B  c #008242",
"V  c #018443",
"C  c #048444",
"Z  c #128C49",
"A  c #00924D",
"S  c #118D51",
"D  c #158D52",
"F  c #158E52",
"G  c #1A8E54",
"H  c #1D9258",
"J  c #2A974F",
"K  c #349B4F",
"L  c #0B8A62",
"P  c #269660",
"I  c #2C9A65",
"U  c #379D6A",
"Y  c #4DA758",
"T  c #46AC5B",
"R  c #5EAE5B",
"E  c #63B05E",
"W  c #69B65C",
"Q  c #42A472",
"!  c #4EA97E",
"~  c #74BF6E",
"^  c #7DC162",
"/  c #87BE3E",
"(  c #8EC23B",
")  c #8AC43D",
"_  c #8BC43D",
"`  c #8BC53D",
"'  c #97C93C",
"]  c #98C93C",
"[  c #9FCC3C",
"{  c #9CCE3D",
"}  c #A4CA38",
"|  c #A0CC3C",
" . c #A1CC3C",
".. c #ACCD3C",
"X. c #AECC3C",
"o. c #A3CB5C",
"O. c #99CD63",
"+. c #9DCA66",
"@. c #A6CC66",
"#. c #B7D066",
"$. c #B9D572",
"%. c #D7DD5A",
"&. c #CCDA60",
"*. c #CDDB78",
"=. c #D4DD7A",
"-. c #E3E26F",
";. c #ECE47C",
":. c #E9EC7B",
">. c #F7E778",
",. c #FBE97B",
"<. c #FFE97C",
"1. c #61B397",
"2. c #85C4AA",
"3. c #83CAAE",
"4. c #ABD5B0",
"5. c #A4D5BD",
"6. c #FFF190",
"7. c #99D1C5",
"8. c #B9D5CA",
"9. c #BFE0EB",
"0. c #D8EAF2",
"q. c #DAEEFB",
"w. c #DBE9FF",
"e. c #FFE3E9",
"r. c #E0F3EC",
"t. c #FFEBF8",
"y. c #EAF7F3",
"u. c #E1F1FF",
"i. c #FCF0F3",
"p. c #FEF5F7",
"a. c #F7F6FB",
"s. c #F9F3FB",
"d. c #FFF4FF",
"f. c #F4FAFF",
"g. c #FFFCFA",
"h. c #FEFBFC",
"j. c #FFFCFF",
"k. c gray100",
"l. c None",
/* pixels */
"l.l.l.l.l.M M M M M M l.l.l.l.l.",
"l.l.l.M M M M i 8 9 g M M l.l.l.",
"l.l.M M M 7 ; I ! H F > 1 M l.l.",
"l.M M M = G e.8.a.k.s.t.U = M l.",
"l.M M O P i.V X . d.O 5 p.F 4 l.",
"M 9 O M k.Q o h 5 k.S . 5.k.O M ",
"r C k.k.f.h.k.k.k.k.k.g.k.k.r y ",
"& r.k.3.o.~ u.k.k.k.7.+.^ w.y.& ",
"& k.0.} @.%.W k.k.q.( #.&.O.k., ",
"3 1.4.>.p T -.9.k.2.,.c A 6.L r ",
"M 1 # :.*.<.K + : @ $.=.;.E < M ",
"l.M h w R Z d M M h q Y J w M l.",
"l.M v k d d k k k k c d d v M l.",
"l.l./ { ) _ _ _ ) ) ) ) { / l.l.",
"l.l.l.X.{  . . . . . . .X.l.l.l.",
"l.l.l.l.l.] ' ' ' ] ] l.l.l.l.l."
};
