/* XPM */
static char *_985ca8cce6a46ceef75ba5035a20233[] = {
/* columns rows colors chars-per-pixel */
"32 32 142 2 ",
"   c #005C17",
".  c #006214",
"X  c #00661A",
"o  c #026B1E",
"O  c #006E23",
"+  c #00662F",
"@  c #007025",
"#  c #01742C",
"$  c #0B752C",
"%  c #006630",
"&  c #016C33",
"*  c #007434",
"=  c #0B7237",
"-  c #007A34",
";  c #0F7A35",
":  c #017539",
">  c #0B7538",
",  c #017C3C",
"<  c #0B7A3C",
"1  c #107933",
"2  c #137E3B",
"3  c #007742",
"4  c #007E41",
"5  c #00813E",
"6  c #22822F",
"7  c #2E943A",
"8  c #319333",
"9  c #429A34",
"0  c #63B03E",
"q  c #72B83D",
"w  c #008241",
"e  c #0E8242",
"r  c #138443",
"t  c #1A8444",
"y  c #148649",
"u  c #168A4B",
"i  c #1A894A",
"p  c #0F8551",
"a  c #1B9158",
"s  c #258D4F",
"d  c #26914A",
"f  c #29924B",
"g  c #35994B",
"h  c #238C53",
"j  c #269255",
"k  c #27935B",
"l  c #2A945B",
"z  c #309258",
"x  c #2D9964",
"c  c #2B956C",
"v  c #339A64",
"b  c #3C9B67",
"n  c #3B9D6C",
"m  c #4B9E52",
"M  c #51A557",
"N  c #52A959",
"B  c #5EAB5A",
"V  c #60AA42",
"C  c #6DB15F",
"Z  c #76B654",
"A  c #43A076",
"S  c #55A97C",
"D  c #5BAA7D",
"F  c #79B963",
"G  c #8CC53D",
"H  c #94C73E",
"J  c #96C93C",
"K  c #99CA3C",
"L  c #AAD23C",
"P  c #B4D83B",
"I  c #83BE66",
"U  c #87BF68",
"Y  c #96C352",
"T  c #A6CA5B",
"R  c #8EC269",
"E  c #90C269",
"W  c #9EC96E",
"Q  c #A2CC6F",
"!  c #ADD173",
"~  c #B2D273",
"^  c #C1D766",
"/  c #CFDF7B",
"(  c #D5E16F",
")  c #D2E17C",
"_  c #E4E875",
"`  c #E8E97C",
"'  c #EDF17C",
"]  c #4DA584",
"[  c #50A686",
"{  c #58AC83",
"}  c #50A888",
"|  c #5FB087",
" . c #65B189",
".. c #73BA95",
"X. c #79BE9E",
"o. c #7CBFA0",
"O. c #7EBFAC",
"+. c #7CC09F",
"@. c #83C2A3",
"#. c #89C3A5",
"$. c #86C3AE",
"%. c #8BC7AA",
"&. c #92CAAF",
"*. c #82C2B1",
"=. c #97CAB0",
"-. c #9CCFB6",
";. c #91C9B9",
":. c #A2D1BA",
">. c #DDE680",
",. c #E6EB82",
"<. c #EEF388",
"1. c #F1F483",
"2. c #F4F58B",
"3. c #FCF98D",
"4. c #F8F790",
"5. c #FEFA93",
"6. c #FFFB98",
"7. c #9ACDC1",
"8. c #A7D3C1",
"9. c #ADD8C3",
"0. c #A8D4CC",
"q. c #B0D7C3",
"w. c #B2D8C5",
"e. c #B7DBC9",
"r. c #B8DDCC",
"t. c #A7D6D1",
"y. c #C4E3D4",
"u. c #C8E5D6",
"i. c #D1E8DD",
"p. c #D9ECE2",
"a. c #D6ECED",
"s. c #D8EDEC",
"d. c #DFF0E6",
"f. c #E1EEE7",
"g. c #E0F0E7",
"h. c #E3F1EA",
"j. c #E9F4EE",
"k. c #ECF6F2",
"l. c #F2F9F6",
"z. c #F5FAFA",
"x. c #FFFFFF",
"c. c None",
/* pixels */
"c.c.c.c.c.c.c.c.c.c.c.c.w w w w w w w w c.c.c.c.c.c.c.c.c.c.c.c.",
"c.c.c.c.c.c.c.c.c.w w w w w w w w , w w w w w c.c.c.c.c.c.c.c.c.",
"c.c.c.c.c.c.c.w w 5 w w w w w w w w w w w w w w w c.c.c.c.c.c.c.",
"c.c.c.c.c.c.w w w w w w 5 w w w w w w w w w w w w w c.c.c.c.c.c.",
"c.c.c.c.c.w w w w w w w w w - # @ @ @ # # , w w w w w c.c.c.c.c.",
"c.c.c.c.w w 5 w w w w w # O u D o.@.X.| b e @ @ , w w w c.c.c.c.",
"c.c.c.w 5 w w w w w - o n d.x.x.x.x.x.x.x.x.g. .$ - w w w c.c.c.",
"c.c.w w w w w w w - $ e.x.j. .b z #.x.x.=...j.x.j.y # w w w c.c.",
"c.c.w w w 5 w w - ; j.x.%.o @ - # X p.x.r . o @.x.k.1 - w w c.c.",
"c.w w w w w w - $ j.x.%.X 5 w w w @ y.x.l - 5 X q.x.i.O w w w c.",
"c.w w w w w - X u.x.r.  # - # * * X u.x.i O - O 1 z.x.{ @ w w c.",
"c.w w , O # 2 9.x.x.:.t l l l l h j l.x.D i l h z x.x.h.# 5 w c.",
"w w , @ ..h.x.x.x.x.x.x.x.x.x.x.x.x.x.x.x.x.x.x.x.x.x.x.y - w 5 ",
"w w @ e.x.x.x.x.x.x.x.x.x.x.x.x.x.x.x.x.x.x.x.x.x.x.x.x.S O w w ",
"w # v x.x.x.x.0.A x A 0.x.x.x.x.x.x.x.x.x.a.} x n O.z.x.z.y - w ",
"w @ +.x.x.x.[ 8 ^ _ ^ 8 ] x.x.x.x.x.x.x.7.6 T _ ( V h l.x.%.@ w ",
"w @ =.x.x.*.9 5.4.<.5.5.9 O.x.x.x.x.x.a.6 1.6.2.4.5.Y c x.w.@ w ",
"w @ &.x.x.s ' 2.M = M 2.' s x.x.x.x.x.] T 5.E > i ,.5.7 k.-.@ w ",
"w - u z.z.g 3.! % , % ! 3.g z.x.x.x.x.n _ 2.> , % N 5.Z t.v : w ",
"w w # l ;.g 3./ : & & / 3.g $.:.-.-.8.a ` 2.y % % I 5.R p - w 5 ",
"c.w w - @ < ,.5.~ m ~ 5.,.> @ @ @ O @ & W 5.>.M I 2.4.d * w w c.",
"c.w w w w : d <.5.5.5.<.d , w w w w w , < ) 5.5.5.4.C : w w w c.",
"c.w w w 4 w : e F Q F r , w w w w w w w , < B W E f * w w w w c.",
"c.c.w w w w w , : * * , w w w w w w w w w w : * : : w w w w c.c.",
"c.c.w w w w w w w w w w w w w w w w w w w w w w w w w w w w c.c.",
"c.c.c.4 3 3 3 3 3 3 3 3 3 3 3 3 3 3 3 3 3 3 3 3 3 3 3 3 4 c.c.c.",
"c.c.c.c.q 0 0 0 0 0 0 0 0 0 0 0 0 0 0 0 0 0 0 0 0 0 0 q c.c.c.c.",
"c.c.c.c.c.P L L L L L L L L L L L L L L L L L L L L P c.c.c.c.c.",
"c.c.c.c.c.c.J K J J J J J J J J J J J J J J J J K H c.c.c.c.c.c.",
"c.c.c.c.c.c.c.G K K J J J J J J J J J J J J K K G c.c.c.c.c.c.c.",
"c.c.c.c.c.c.c.c.c.J K J J J J K J J J K K K J c.c.c.c.c.c.c.c.c.",
"c.c.c.c.c.c.c.c.c.c.c.c.J J J J J J J J c.c.c.c.c.c.c.c.c.c.c.c."
};
