/* XPM */
static char *_032fa3af0944611c2562e64d85dcff7[] = {
/* columns rows colors chars-per-pixel */
"64 64 129 2 ",
"   c #00732A",
".  c #007731",
"X  c #007B36",
"o  c #007D3C",
"O  c #007F41",
"+  c #01813D",
"@  c #0D863C",
"#  c #76BA3D",
"$  c #008241",
"%  c #0C8545",
"&  c #0E8943",
"*  c #04854A",
"=  c #0C864A",
"-  c #158B46",
";  c #198C46",
":  c #108749",
">  c #128A4D",
",  c #1D8F49",
"<  c #148B54",
"1  c #1B8E53",
"2  c #248F43",
"3  c #218F49",
"4  c #279440",
"5  c #299442",
"6  c #23924B",
"7  c #2D964E",
"8  c #32964E",
"9  c #31984F",
"0  c #3C9B4C",
"q  c #209056",
"w  c #23925B",
"e  c #349A50",
"r  c #3B9D51",
"t  c #249462",
"y  c #2A9762",
"u  c #2E9863",
"i  c #329A65",
"p  c #369C69",
"a  c #3B9E6D",
"s  c #3EA06F",
"d  c #3FA170",
"f  c #46A250",
"g  c #4BA454",
"h  c #56A755",
"j  c #59AA57",
"k  c #52A658",
"l  c #5EAC5A",
"z  c #62AE5B",
"x  c #66B05D",
"c  c #6AB25F",
"v  c #44A272",
"b  c #48A576",
"n  c #4BA679",
"m  c #4CA87A",
"M  c #52A97C",
"N  c #77B863",
"B  c #7BBA62",
"V  c #89C33D",
"C  c #92C73C",
"Z  c #97C93C",
"A  c #9BCB3C",
"S  c #A2CE3C",
"D  c #A8D23B",
"F  c #83BD65",
"G  c #8CC167",
"H  c #8CC269",
"J  c #94C56B",
"K  c #98C76B",
"L  c #9DC96D",
"P  c #A5CD6F",
"I  c #A6CD70",
"U  c #AACF71",
"Y  c #AFD172",
"T  c #B4D373",
"R  c #BBD775",
"E  c #BED876",
"W  c #C3DA78",
"Q  c #CCDE7B",
"!  c #D4E27D",
"~  c #DCE57E",
"^  c #55AB82",
"/  c #5CAE84",
"(  c #62AF85",
")  c #62B289",
"_  c #6AB58F",
"`  c #6BB691",
"'  c #70B794",
"]  c #71BA96",
"[  c #74BB99",
"{  c #7ABD9C",
"}  c #7CBFA0",
"|  c #7FC19F",
" . c #7FC1A0",
".. c #80C09F",
"X. c #83C2A3",
"o. c #8AC6A7",
"O. c #87C4A8",
"+. c #8AC6A9",
"@. c #8FC8AC",
"#. c #93CAAF",
"$. c #97CCB2",
"%. c #9BCEB5",
"&. c #9FD0B8",
"*. c #A4D2BB",
"=. c #AAD5BF",
"-. c #DDE780",
";. c #E6EA81",
":. c #EBEC83",
">. c #F1EF85",
",. c #F5F185",
"<. c #F8F286",
"1. c #B2D9C5",
"2. c #B6DCC9",
"3. c #BADDCB",
"4. c #BFE0CF",
"5. c #BFE0D0",
"6. c #C2E1D2",
"7. c #C9E4D6",
"8. c #CCE6D9",
"9. c #CFE8DC",
"0. c #D2E9DE",
"q. c #DBEDE4",
"w. c #E3F1EA",
"e. c #EAF4EF",
"r. c #EDF6F2",
"t. c #F2F8F5",
"y. c #F6FAF8",
"u. c #FFFFFF",
"i. c None",
/* pixels */
"i.i.i.i.i.i.i.i.i.i.i.i.i.i.i.i.i.i.i.i.i.i.i.i.i.i.$ $ $ $ $ $ $ $ $ $ $ $ i.i.i.i.i.i.i.i.i.i.i.i.i.i.i.i.i.i.i.i.i.i.i.i.i.i.",
"i.i.i.i.i.i.i.i.i.i.i.i.i.i.i.i.i.i.i.i.i.i.$ $ $ $ $ $ $ $ $ $ $ $ $ $ $ $ $ $ $ $ i.i.i.i.i.i.i.i.i.i.i.i.i.i.i.i.i.i.i.i.i.i.",
"i.i.i.i.i.i.i.i.i.i.i.i.i.i.i.i.i.i.i.$ $ $ $ $ $ $ $ $ $ $ $ $ $ $ $ $ $ $ $ $ $ $ $ $ $ i.i.i.i.i.i.i.i.i.i.i.i.i.i.i.i.i.i.i.",
"i.i.i.i.i.i.i.i.i.i.i.i.i.i.i.i.i.$ $ $ $ $ $ $ $ $ $ $ $ $ $ $ $ $ $ $ $ $ $ $ $ $ $ $ $ $ $ i.i.i.i.i.i.i.i.i.i.i.i.i.i.i.i.i.",
"i.i.i.i.i.i.i.i.i.i.i.i.i.i.i.i.$ $ $ $ $ $ $ $ $ $ $ $ $ $ $ $ $ $ $ $ $ $ $ $ $ $ $ $ $ $ $ $ i.i.i.i.i.i.i.i.i.i.i.i.i.i.i.i.",
"i.i.i.i.i.i.i.i.i.i.i.i.i.i.$ $ $ $ $ $ $ $ $ $ $ $ $ $ $ $ $ $ $ $ $ $ $ $ $ $ $ $ $ $ $ $ $ $ $ $ i.i.i.i.i.i.i.i.i.i.i.i.i.i.",
"i.i.i.i.i.i.i.i.i.i.i.i.i.$ $ $ $ $ $ $ $ $ $ $ $ $ $ $ $ $ $ $ $ $ $ $ $ $ $ $ $ $ $ $ $ $ $ $ $ $ $ i.i.i.i.i.i.i.i.i.i.i.i.i.",
"i.i.i.i.i.i.i.i.i.i.i.$ $ $ $ $ $ $ $ $ $ $ $ $ $ $ $ $ $ $ $ $ $ $ $ $ $ $ $ $ $ $ $ $ $ $ $ $ $ $ $ $ $ i.i.i.i.i.i.i.i.i.i.i.",
"i.i.i.i.i.i.i.i.i.i.$ $ $ $ $ $ $ $ $ $ $ $ $ $ $ $ $ $ $ $ $ $ $ $ $ $ $ $ $ $ $ $ $ $ $ $ $ $ $ $ $ $ $ $ i.i.i.i.i.i.i.i.i.i.",
"i.i.i.i.i.i.i.i.i.$ $ $ $ $ $ $ $ $ $ $ $ $ $ $ $ $ $ $ $ $ $ $ + + + + + + $ $ $ $ $ $ $ $ $ $ $ $ $ $ $ $ $ i.i.i.i.i.i.i.i.i.",
"i.i.i.i.i.i.i.i.$ $ $ $ $ $ $ $ $ $ $ $ $ $ $ $ $ $ $ $ + X X X $ > > > > * $ X X X X $ $ $ $ $ $ $ $ $ $ $ $ $ i.i.i.i.i.i.i.i.",
"i.i.i.i.i.i.i.$ $ $ $ $ $ $ $ $ $ $ $ $ $ $ $ $ $ $ X X q / #.4.q.r.r.r.r.q.8.2.#._ a > X X o + $ $ $ $ $ $ $ $ $ i.i.i.i.i.i.i.",
"i.i.i.i.i.i.i.$ $ $ $ $ $ $ $ $ $ $ $ $ $ $ $ $ X $ M 1.t.u.u.u.u.u.u.u.u.u.u.u.u.u.u.e.=.) 1 X + $ $ $ $ $ $ $ $ i.i.i.i.i.i.i.",
"i.i.i.i.i.i.$ $ $ $ $ $ $ $ $ $ $ $ $ $ $ $ o X M 8.u.u.u.u.u.u.u.u.u.u.u.u.u.u.u.u.u.u.u.u.e.#.w X $ $ $ $ $ $ $ $ i.i.i.i.i.i.",
"i.i.i.i.i.$ $ $ $ $ $ $ $ $ $ $ $ $ $ $ $ X 1 =.u.u.u.u.r.2.#.X.| X.3.u.u.u.u.u.u.q.q.u.u.u.u.u.t.{ + + $ $ $ $ $ $ $ i.i.i.i.i.",
"i.i.i.i.i.$ $ $ $ $ $ $ $ $ $ $ $ $ $ + X b w.u.u.u.q.) > X X X X X X ` u.u.u.u.@.+ % i { q.u.u.u.u.&.o $ $ $ $ $ $ $ i.i.i.i.i.",
"i.i.i.i.$ $ $ $ $ $ $ $ $ $ $ $ $ $ $ X ) u.u.u.u.&.: X o $ $ $ $ $ $ X 3.u.u.u./ X $ X X % o.u.u.u.u.o.X $ $ $ $ $ $ $ i.i.i.i.",
"i.i.i.$ $ $ $ $ $ $ $ $ $ $ $ $ $ $ X ` u.u.u.u. .X + $ $ $ $ $ $ $ $ . X.u.u.u.) X $ $ $ o X ] u.u.u.u.) X $ $ $ $ $ $ $ i.i.i.",
"i.i.i.$ $ $ $ $ $ $ $ $ $ $ $ $ $ X ) u.u.u.u. .X $ $ $ $ $ $ $ $ $ $ X | u.u.u.) X $ $ $ $ + X %.u.u.u.y.i X $ $ $ $ $ $ i.i.i.",
"i.i.$ $ $ $ $ $ $ $ $ $ $ $ $ $ X b u.u.u.u.%.X + $ $ $ $ $ $ $ $ $ $ X | u.u.u.) X $ $ $ $ $ + : w.u.u.u.9.% + $ $ $ $ $ $ i.i.",
"i.i.$ $ $ $ $ $ $ $ $ $ $ $ $ X w r.u.u.u.7.$ o $ $ $ $ $ $ $ $ $ $ $ X X.u.u.u.) X $ $ $ $ $ $ X [ u.u.u.u.{ X $ $ $ $ $ $ i.i.",
"i.i.$ $ $ $ $ $ $ $ $ $ $ $ o % 7.u.u.u.u.a X $ $ $ $ $ $ $ $ $ $ $ $ X @.u.u.u.) X $ $ $ $ $ $ X w t.u.u.u.r.1 + $ $ $ $ $ i.i.",
"i.$ $ $ $ $ $ $ $ $ $ $ o X % 2.u.u.u.u.t.> . X X X X X X X X X X X X . 2.u.u.u.)   X X X X X X X * e.u.u.u.u.[ X $ $ $ $ $ $ i.",
"i.$ $ $ $ $ $ $ $ X X + 1 M 8.u.u.u.u.u.u.2.) ) ) ) ) ) ) ) ) ) ) ) ) X.u.u.u.u.7.( ) ) ) ) ) ) ( *.u.u.u.u.u.7.o $ $ $ $ $ $ i.",
"i.$ $ $ $ $ $ o X i X.7.r.u.u.u.u.u.u.u.u.u.u.u.u.u.u.u.u.u.u.u.u.u.u.u.u.u.u.u.u.u.u.u.u.u.u.u.u.u.u.u.u.u.u.y.w + $ $ $ $ $ i.",
"i.$ $ $ $ $ o 1 *.u.u.u.u.u.u.u.u.u.u.u.u.u.u.u.u.u.u.u.u.u.u.u.u.u.u.u.u.u.u.u.u.u.u.u.u.u.u.u.u.u.u.u.u.u.u.u./ X $ $ $ $ $ i.",
"$ $ $ $ $ X 1 q.u.u.u.u.u.u.u.u.u.u.u.u.u.u.u.u.u.u.u.u.u.u.u.u.u.u.u.u.u.u.u.u.u.u.u.u.u.u.u.u.u.u.u.u.u.u.u.u.{ . $ $ $ $ $ $ ",
"$ $ $ $ $ + 6.u.u.u.u.u.u.u.u.u.u.u.u.u.u.u.u.u.u.u.u.u.u.u.u.u.u.u.u.u.u.u.u.u.u.u.u.u.u.u.u.u.u.u.u.u.u.u.u.u.0.1 X $ $ $ $ $ ",
"$ $ $ $ X m u.u.u.u.u.u.u.u.u.u.q.*.o.+.=.q.u.u.u.u.u.u.u.u.u.u.u.u.u.u.u.u.u.u.u.u.u.u.y.6.$.+.#.3.t.u.u.u.u.u.u.9.% + $ $ $ $ ",
"$ $ $ $ X *.u.u.u.u.u.u.u.u.3.a $ X + + X o a 2.u.u.u.u.u.u.u.u.u.u.u.u.u.u.u.u.u.u.t.X.1 X + + + X > ' w.u.u.u.u.u.{ . $ $ $ $ ",
"$ $ $ + * 0.u.u.u.u.u.u.u.` X 5 G W ~ ~ W G 5 X ` y.u.u.u.u.u.u.u.u.u.u.u.u.u.u.u.8.w X k U Q -.! T z X > 3.u.u.u.u.q.* $ $ $ $ ",
"$ $ $ + > r.u.u.u.u.u.u.^ . F ;.,.:.;.:.>.,.:.F . ^ u.u.u.u.u.u.u.u.u.u.u.u.u.u.8.% 2 E ,.,.:.;.:.,.,.Q 0 o 1.u.u.u.u.w + $ $ $ ",
"$ $ $ + q t.u.u.u.u.u.X.  J <.:.;.;.:.;.;.;.:.<.K . X.u.u.u.u.u.u.u.u.u.u.u.u.t.w 2 -.>.;.;.;.:.;.;.;.>.;.r = w.u.u.u.d X $ $ $ ",
"$ $ $ o y u.u.u.u.u.w.+ z <.;.;.:.,.-.-.>.:.;.;.<.x O q.u.u.u.u.u.u.u.u.u.u.u.} X W >.;.;.>.;.-.;.,.;.;.:.-.@ ^ u.u.u.d X $ $ $ ",
"$ $ $ o w u.u.u.u.u.| + ! :.;.:.! z 3 3 z ! :.;.:.! + [ u.u.u.u.u.u.u.u.u.u.t.< j ,.;.;.>.I r ; 8 J >.;.;.,.B $ q.u.u.y o $ $ $ ",
"$ $ $ + % w.u.u.u.u.y f >.:.:.-.e X o O X 8 -.:.;.,.f t u.u.u.u.u.u.u.u.u.u.3.X Y >.;.>.I O O O O O F >.;.:.Q X $.u.q.% $ $ $ $ ",
"$ $ $ $ X @.u.u.u.e.* B ,.;.>.J o O O $ O o F ,.;.,.F $ e.u.u.u.u.u.u.u.u.u.+.+ ! :.:.:.9 o $ $ O O - ~ ;.:.;.; ) u.X.X $ $ $ $ ",
"$ $ $ $ + : 8.u.u.w.$ G ,.;.,.z o O $ $ O o x ,.;.,.H $ w.u.u.u.u.u.u.u.u.u.{ @ -.;.:.! % O $ $ O O + W >.;.;.4 ) r.1 + $ $ $ $ ",
"i.$ $ $ $ o > =.u.r.% F >.;.>.F o $ $ $ O o B ,.;.,.F * e.u.u.u.u.u.u.u.u.u.+.+ -.:.:.;.6 O $ $ O O : ! ;.:.:.3 ^ n X $ $ $ $ i.",
"i.$ $ $ $ $ o o u p $ l ,.;.:.! ; o $ O o - ! :.;.,.x $ p p p p p p p p p s w + E :.;.>.F o O O O o x >.;.:.! : $ O $ $ $ $ $ i.",
"i.$ $ $ $ $ $ $ X o $ , -.:.;.>.R 8 O O 8 T >.;.:.;., o X o X + X X + X X + + o N >.;.;.>.N - O : z ;.:.;.,.K O $ $ $ $ $ $ $ i.",
"i.$ $ $ $ $ $ $ $ $ $ o F <.;.;.>.;.E E ;.>.;.;.,.G o $ $ $ $ $ $ $ $ $ $ $ $ + ; -.:.;.;.>.-.Y Q >.;.;.:.;.7 o $ $ $ $ $ $ $ i.",
"i.i.$ $ $ $ $ $ $ $ $ O : R ,.;.;.;.>.>.:.;.;.<.E % $ $ $ $ $ $ $ $ $ $ $ $ $ $ O g >.:.;.;.:.:.:.;.;.:.,.c o $ $ $ $ $ $ $ i.i.",
"i.i.$ $ $ $ $ $ $ $ $ $ o - Y ,.:.:.;.;.;.:.<.Y ; O $ $ $ $ $ $ $ $ $ $ $ $ $ $ O O k -.,.:.:.:.;.:.>.:.c O O $ $ $ $ $ $ $ i.i.",
"i.i.$ $ $ $ $ $ $ $ $ $ $ O $ z E ;.:.>.;.W z $ o $ $ $ $ $ $ $ $ $ $ $ $ $ $ $ $ $ o 6 H ! :.:.:.-.L 9 O $ $ $ $ $ $ $ $ $ i.i.",
"i.i.i.$ $ $ $ $ $ $ $ $ $ $ $ o $ 6 r r 2 + o $ $ $ $ $ $ $ $ $ $ $ $ $ $ $ $ $ $ $ $ O o : e r e - o O $ $ $ $ $ $ $ $ $ i.i.i.",
"i.i.i.$ $ $ $ $ $ $ $ $ $ $ $ $ + o o O o O $ $ $ $ $ $ $ $ $ $ $ $ $ $ $ $ $ $ $ $ $ $ $ o o O O O O O $ $ $ $ $ $ $ $ $ i.i.i.",
"i.i.i.i.$ $ $ $ $ $ $ $ $ $ $ $ $ $ $ $ $ $ $ $ $ $ $ $ $ $ $ $ $ $ $ $ $ $ $ $ $ $ $ $ $ $ $ $ $ $ $ $ $ $ $ $ $ $ $ $ i.i.i.i.",
"i.i.i.i.i.$ $ $ $ $ $ $ $ $ $ $ $ $ $ $ $ $ $ $ $ $ $ $ $ $ $ $ $ $ $ $ $ $ $ $ $ $ $ $ $ $ $ $ $ $ $ $ $ $ $ $ $ $ $ i.i.i.i.i.",
"i.i.i.i.i.$ $ $ $ $ $ $ $ $ $ $ $ $ $ $ $ $ $ $ $ $ $ $ $ $ $ $ $ $ $ $ $ $ $ $ $ $ $ $ $ $ $ $ $ $ $ $ $ $ $ $ $ $ $ i.i.i.i.i.",
"i.i.i.i.i.i.$ $ $ $ $ $ $ $ $ $ $ $ $ $ $ $ $ $ $ $ $ $ $ $ $ $ $ $ $ $ $ $ $ $ $ $ $ $ $ $ $ $ $ $ $ $ $ $ $ $ $ $ i.i.i.i.i.i.",
"i.i.i.i.i.i.i.$ $ O O O O O O O O O $ $ O O O O O O O O O O O + O O O O O O O + O O O O O O O $ O O O O O O O $ $ i.i.i.i.i.i.i.",
"i.i.i.i.i.i.i.& 4 4 4 4 4 4 4 4 4 4 4 4 4 4 4 4 4 4 4 4 4 4 4 4 4 4 4 4 4 4 4 4 4 4 4 4 4 4 4 4 4 4 4 4 4 4 4 4 & i.i.i.i.i.i.i.",
"i.i.i.i.i.i.i.i.D S A A A A A A A A S A A A A A A A A A A A A A A A A A A A A A A A A A A A A A A A A A A A S D i.i.i.i.i.i.i.i.",
"i.i.i.i.i.i.i.i.i.# A Z Z Z A Z Z Z Z Z Z Z Z Z A Z Z Z A Z Z Z Z Z Z Z Z Z Z Z Z Z A A Z Z Z Z Z Z Z Z A A # i.i.i.i.i.i.i.i.i.",
"i.i.i.i.i.i.i.i.i.i.A A Z Z Z Z Z Z Z Z Z Z Z Z Z Z Z Z Z Z Z Z Z Z Z Z Z Z Z Z Z Z Z Z Z Z Z Z Z Z Z Z A A i.i.i.i.i.i.i.i.i.i.",
"i.i.i.i.i.i.i.i.i.i.i.V A Z Z Z Z Z Z Z Z Z Z Z Z Z Z Z A Z Z Z Z Z Z Z Z Z Z Z Z Z Z Z Z Z Z Z Z Z Z A V i.i.i.i.i.i.i.i.i.i.i.",
"i.i.i.i.i.i.i.i.i.i.i.i.i.Z Z Z Z Z Z Z Z Z Z Z Z Z Z Z Z Z Z Z Z Z Z Z Z Z Z Z Z Z Z Z Z Z Z Z Z Z Z i.i.i.i.i.i.i.i.i.i.i.i.i.",
"i.i.i.i.i.i.i.i.i.i.i.i.i.i.C Z Z Z Z Z Z Z Z Z Z Z Z Z Z Z Z Z Z Z Z Z Z Z Z Z Z Z Z Z Z Z Z Z Z C i.i.i.i.i.i.i.i.i.i.i.i.i.i.",
"i.i.i.i.i.i.i.i.i.i.i.i.i.i.i.i.Z Z Z Z Z Z Z Z Z Z Z Z Z Z Z Z Z Z Z Z Z Z Z Z Z Z Z Z Z Z Z Z i.i.i.i.i.i.i.i.i.i.i.i.i.i.i.i.",
"i.i.i.i.i.i.i.i.i.i.i.i.i.i.i.i.i.V Z Z Z Z Z Z Z Z Z Z Z Z Z Z Z Z Z Z Z Z Z Z Z Z Z Z Z Z V i.i.i.i.i.i.i.i.i.i.i.i.i.i.i.i.i.",
"i.i.i.i.i.i.i.i.i.i.i.i.i.i.i.i.i.i.i.Z Z Z Z Z Z Z Z Z Z Z Z Z Z Z Z Z Z Z Z Z Z Z Z Z Z i.i.i.i.i.i.i.i.i.i.i.i.i.i.i.i.i.i.i.",
"i.i.i.i.i.i.i.i.i.i.i.i.i.i.i.i.i.i.i.i.i.i.Z Z Z Z Z Z Z Z Z Z Z Z Z Z Z Z Z Z Z Z i.i.i.i.i.i.i.i.i.i.i.i.i.i.i.i.i.i.i.i.i.i.",
"i.i.i.i.i.i.i.i.i.i.i.i.i.i.i.i.i.i.i.i.i.i.i.i.i.i.Z Z Z Z Z Z Z Z Z Z Z Z i.i.i.i.i.i.i.i.i.i.i.i.i.i.i.i.i.i.i.i.i.i.i.i.i.i."
};
